<mxfile host="app.diagrams.net" agent="Mozilla/5.0 (Windows NT 10.0; Win64; x64) AppleWebKit/537.36 (KHTML, like Gecko) Chrome/128.0.0.0 Safari/537.36" version="24.7.12">
  <diagram name="Page-1" id="0D8cygfv9BHB008Nze-W">
    <mxGraphModel dx="1050" dy="1699" grid="1" gridSize="10" guides="1" tooltips="1" connect="1" arrows="1" fold="1" page="1" pageScale="1" pageWidth="827" pageHeight="1169" math="0" shadow="0">
      <root>
        <mxCell id="0" />
        <mxCell id="1" parent="0" />
        <mxCell id="XmIEk9-biLJK7yd4Yqgu-22" value="" style="rounded=0;whiteSpace=wrap;html=1;" vertex="1" parent="1">
          <mxGeometry x="120" y="80" width="560" height="250" as="geometry" />
        </mxCell>
        <mxCell id="XmIEk9-biLJK7yd4Yqgu-5" style="edgeStyle=orthogonalEdgeStyle;rounded=0;orthogonalLoop=1;jettySize=auto;html=1;entryX=0.5;entryY=0;entryDx=0;entryDy=0;" edge="1" parent="1" source="XmIEk9-biLJK7yd4Yqgu-1" target="XmIEk9-biLJK7yd4Yqgu-2">
          <mxGeometry relative="1" as="geometry" />
        </mxCell>
        <mxCell id="XmIEk9-biLJK7yd4Yqgu-6" style="edgeStyle=orthogonalEdgeStyle;rounded=0;orthogonalLoop=1;jettySize=auto;html=1;entryX=0.5;entryY=0;entryDx=0;entryDy=0;" edge="1" parent="1" source="XmIEk9-biLJK7yd4Yqgu-1" target="XmIEk9-biLJK7yd4Yqgu-3">
          <mxGeometry relative="1" as="geometry" />
        </mxCell>
        <mxCell id="XmIEk9-biLJK7yd4Yqgu-9" style="edgeStyle=orthogonalEdgeStyle;rounded=0;orthogonalLoop=1;jettySize=auto;html=1;" edge="1" parent="1" source="XmIEk9-biLJK7yd4Yqgu-1" target="XmIEk9-biLJK7yd4Yqgu-4">
          <mxGeometry relative="1" as="geometry" />
        </mxCell>
        <mxCell id="XmIEk9-biLJK7yd4Yqgu-10" style="edgeStyle=orthogonalEdgeStyle;rounded=0;orthogonalLoop=1;jettySize=auto;html=1;exitX=1;exitY=0.5;exitDx=0;exitDy=0;entryX=0.5;entryY=0;entryDx=0;entryDy=0;" edge="1" parent="1" source="XmIEk9-biLJK7yd4Yqgu-1" target="XmIEk9-biLJK7yd4Yqgu-8">
          <mxGeometry relative="1" as="geometry" />
        </mxCell>
        <mxCell id="XmIEk9-biLJK7yd4Yqgu-1" value="Data Augmentation" style="rounded=0;whiteSpace=wrap;html=1;fontSize=14;" vertex="1" parent="1">
          <mxGeometry x="300" y="110" width="200" height="60" as="geometry" />
        </mxCell>
        <mxCell id="XmIEk9-biLJK7yd4Yqgu-17" style="edgeStyle=orthogonalEdgeStyle;rounded=0;orthogonalLoop=1;jettySize=auto;html=1;exitX=0.5;exitY=1;exitDx=0;exitDy=0;entryX=0.5;entryY=0;entryDx=0;entryDy=0;" edge="1" parent="1" source="XmIEk9-biLJK7yd4Yqgu-2" target="XmIEk9-biLJK7yd4Yqgu-11">
          <mxGeometry relative="1" as="geometry">
            <mxPoint x="410" y="350" as="targetPoint" />
          </mxGeometry>
        </mxCell>
        <mxCell id="XmIEk9-biLJK7yd4Yqgu-2" value="IRI Rename" style="rounded=0;whiteSpace=wrap;html=1;fillColor=#dae8fc;strokeColor=#6c8ebf;fontSize=14;" vertex="1" parent="1">
          <mxGeometry x="130" y="220" width="120" height="60" as="geometry" />
        </mxCell>
        <mxCell id="XmIEk9-biLJK7yd4Yqgu-16" style="edgeStyle=orthogonalEdgeStyle;rounded=0;orthogonalLoop=1;jettySize=auto;html=1;exitX=0.5;exitY=1;exitDx=0;exitDy=0;entryX=0.5;entryY=0;entryDx=0;entryDy=0;" edge="1" parent="1" source="XmIEk9-biLJK7yd4Yqgu-3" target="XmIEk9-biLJK7yd4Yqgu-11">
          <mxGeometry relative="1" as="geometry" />
        </mxCell>
        <mxCell id="XmIEk9-biLJK7yd4Yqgu-3" value="Add/Change payloadName" style="rounded=0;whiteSpace=wrap;html=1;fillColor=#dae8fc;strokeColor=#6c8ebf;fontSize=14;" vertex="1" parent="1">
          <mxGeometry x="270" y="220" width="120" height="60" as="geometry" />
        </mxCell>
        <mxCell id="XmIEk9-biLJK7yd4Yqgu-15" style="edgeStyle=orthogonalEdgeStyle;rounded=0;orthogonalLoop=1;jettySize=auto;html=1;exitX=0.5;exitY=1;exitDx=0;exitDy=0;entryX=0.5;entryY=0;entryDx=0;entryDy=0;" edge="1" parent="1" source="XmIEk9-biLJK7yd4Yqgu-4" target="XmIEk9-biLJK7yd4Yqgu-11">
          <mxGeometry relative="1" as="geometry" />
        </mxCell>
        <mxCell id="XmIEk9-biLJK7yd4Yqgu-4" value="Drop property" style="rounded=0;whiteSpace=wrap;html=1;fillColor=#dae8fc;strokeColor=#6c8ebf;fontSize=14;" vertex="1" parent="1">
          <mxGeometry x="413.5" y="220" width="120" height="60" as="geometry" />
        </mxCell>
        <mxCell id="XmIEk9-biLJK7yd4Yqgu-14" style="edgeStyle=orthogonalEdgeStyle;rounded=0;orthogonalLoop=1;jettySize=auto;html=1;exitX=0.5;exitY=1;exitDx=0;exitDy=0;entryX=0.5;entryY=0;entryDx=0;entryDy=0;" edge="1" parent="1" source="XmIEk9-biLJK7yd4Yqgu-8" target="XmIEk9-biLJK7yd4Yqgu-11">
          <mxGeometry relative="1" as="geometry" />
        </mxCell>
        <mxCell id="XmIEk9-biLJK7yd4Yqgu-8" value="Drop exampleValue" style="rounded=0;whiteSpace=wrap;html=1;fillColor=#dae8fc;strokeColor=#6c8ebf;fontSize=14;" vertex="1" parent="1">
          <mxGeometry x="550" y="220" width="120" height="60" as="geometry" />
        </mxCell>
        <mxCell id="XmIEk9-biLJK7yd4Yqgu-11" value="Model Cleanup" style="rounded=0;whiteSpace=wrap;html=1;fontSize=14;" vertex="1" parent="1">
          <mxGeometry x="300" y="350" width="200" height="60" as="geometry" />
        </mxCell>
        <mxCell id="XmIEk9-biLJK7yd4Yqgu-18" value="" style="endArrow=classic;html=1;rounded=0;" edge="1" parent="1" target="XmIEk9-biLJK7yd4Yqgu-1">
          <mxGeometry width="50" height="50" relative="1" as="geometry">
            <mxPoint x="400" y="30" as="sourcePoint" />
            <mxPoint x="440" y="240" as="targetPoint" />
          </mxGeometry>
        </mxCell>
        <mxCell id="XmIEk9-biLJK7yd4Yqgu-19" value="" style="endArrow=classic;html=1;rounded=0;" edge="1" parent="1">
          <mxGeometry width="50" height="50" relative="1" as="geometry">
            <mxPoint x="399.5" y="410" as="sourcePoint" />
            <mxPoint x="399.5" y="460" as="targetPoint" />
          </mxGeometry>
        </mxCell>
        <mxCell id="XmIEk9-biLJK7yd4Yqgu-20" value="Original Model" style="text;html=1;align=center;verticalAlign=middle;whiteSpace=wrap;rounded=0;fontSize=14;" vertex="1" parent="1">
          <mxGeometry x="370" y="-10" width="60" height="30" as="geometry" />
        </mxCell>
        <mxCell id="XmIEk9-biLJK7yd4Yqgu-21" value="New&lt;br&gt;Model" style="text;html=1;align=center;verticalAlign=middle;whiteSpace=wrap;rounded=0;fontSize=14;" vertex="1" parent="1">
          <mxGeometry x="370" y="460" width="60" height="30" as="geometry" />
        </mxCell>
        <mxCell id="XmIEk9-biLJK7yd4Yqgu-45" style="edgeStyle=orthogonalEdgeStyle;rounded=0;orthogonalLoop=1;jettySize=auto;html=1;exitX=0.5;exitY=1;exitDx=0;exitDy=0;entryX=0.5;entryY=0;entryDx=0;entryDy=0;" edge="1" parent="1" source="XmIEk9-biLJK7yd4Yqgu-23" target="XmIEk9-biLJK7yd4Yqgu-24">
          <mxGeometry relative="1" as="geometry" />
        </mxCell>
        <mxCell id="XmIEk9-biLJK7yd4Yqgu-46" style="edgeStyle=orthogonalEdgeStyle;rounded=0;orthogonalLoop=1;jettySize=auto;html=1;exitX=0.5;exitY=1;exitDx=0;exitDy=0;" edge="1" parent="1" source="XmIEk9-biLJK7yd4Yqgu-23" target="XmIEk9-biLJK7yd4Yqgu-26">
          <mxGeometry relative="1" as="geometry" />
        </mxCell>
        <mxCell id="XmIEk9-biLJK7yd4Yqgu-47" style="edgeStyle=orthogonalEdgeStyle;rounded=0;orthogonalLoop=1;jettySize=auto;html=1;exitX=0.5;exitY=1;exitDx=0;exitDy=0;entryX=0.5;entryY=0;entryDx=0;entryDy=0;" edge="1" parent="1" source="XmIEk9-biLJK7yd4Yqgu-23" target="XmIEk9-biLJK7yd4Yqgu-25">
          <mxGeometry relative="1" as="geometry" />
        </mxCell>
        <mxCell id="XmIEk9-biLJK7yd4Yqgu-23" value="Aspect" style="rounded=0;whiteSpace=wrap;html=1;" vertex="1" parent="1">
          <mxGeometry x="170" y="520" width="120" height="60" as="geometry" />
        </mxCell>
        <mxCell id="XmIEk9-biLJK7yd4Yqgu-44" style="edgeStyle=orthogonalEdgeStyle;rounded=0;orthogonalLoop=1;jettySize=auto;html=1;exitX=0.5;exitY=1;exitDx=0;exitDy=0;entryX=0.5;entryY=0;entryDx=0;entryDy=0;" edge="1" parent="1" source="XmIEk9-biLJK7yd4Yqgu-24" target="XmIEk9-biLJK7yd4Yqgu-37">
          <mxGeometry relative="1" as="geometry" />
        </mxCell>
        <mxCell id="XmIEk9-biLJK7yd4Yqgu-24" value="A" style="rounded=0;whiteSpace=wrap;html=1;fillColor=#d5e8d4;strokeColor=#82b366;" vertex="1" parent="1">
          <mxGeometry x="20" y="630" width="120" height="40" as="geometry" />
        </mxCell>
        <mxCell id="XmIEk9-biLJK7yd4Yqgu-38" style="edgeStyle=orthogonalEdgeStyle;rounded=0;orthogonalLoop=1;jettySize=auto;html=1;exitX=0.5;exitY=1;exitDx=0;exitDy=0;entryX=0.5;entryY=0;entryDx=0;entryDy=0;" edge="1" parent="1" source="XmIEk9-biLJK7yd4Yqgu-25" target="XmIEk9-biLJK7yd4Yqgu-29">
          <mxGeometry relative="1" as="geometry" />
        </mxCell>
        <mxCell id="XmIEk9-biLJK7yd4Yqgu-25" value="B" style="rounded=0;whiteSpace=wrap;html=1;fillColor=#d5e8d4;strokeColor=#B30505;strokeWidth=4;" vertex="1" parent="1">
          <mxGeometry x="170" y="630" width="120" height="40" as="geometry" />
        </mxCell>
        <mxCell id="XmIEk9-biLJK7yd4Yqgu-41" style="edgeStyle=orthogonalEdgeStyle;rounded=0;orthogonalLoop=1;jettySize=auto;html=1;exitX=0.5;exitY=1;exitDx=0;exitDy=0;entryX=0.5;entryY=0;entryDx=0;entryDy=0;" edge="1" parent="1" source="XmIEk9-biLJK7yd4Yqgu-26" target="XmIEk9-biLJK7yd4Yqgu-35">
          <mxGeometry relative="1" as="geometry" />
        </mxCell>
        <mxCell id="XmIEk9-biLJK7yd4Yqgu-42" style="edgeStyle=orthogonalEdgeStyle;rounded=0;orthogonalLoop=1;jettySize=auto;html=1;exitX=0.5;exitY=1;exitDx=0;exitDy=0;" edge="1" parent="1" source="XmIEk9-biLJK7yd4Yqgu-26" target="XmIEk9-biLJK7yd4Yqgu-36">
          <mxGeometry relative="1" as="geometry" />
        </mxCell>
        <mxCell id="XmIEk9-biLJK7yd4Yqgu-26" value="C" style="rounded=0;whiteSpace=wrap;html=1;fillColor=#d5e8d4;strokeColor=#82b366;" vertex="1" parent="1">
          <mxGeometry x="320" y="630" width="120" height="40" as="geometry" />
        </mxCell>
        <mxCell id="XmIEk9-biLJK7yd4Yqgu-39" style="edgeStyle=orthogonalEdgeStyle;rounded=0;orthogonalLoop=1;jettySize=auto;html=1;exitX=0.5;exitY=1;exitDx=0;exitDy=0;entryX=0.5;entryY=0;entryDx=0;entryDy=0;" edge="1" parent="1" source="XmIEk9-biLJK7yd4Yqgu-29" target="XmIEk9-biLJK7yd4Yqgu-32">
          <mxGeometry relative="1" as="geometry" />
        </mxCell>
        <mxCell id="XmIEk9-biLJK7yd4Yqgu-40" style="edgeStyle=orthogonalEdgeStyle;rounded=0;orthogonalLoop=1;jettySize=auto;html=1;exitX=0.5;exitY=1;exitDx=0;exitDy=0;entryX=0.5;entryY=0;entryDx=0;entryDy=0;" edge="1" parent="1" source="XmIEk9-biLJK7yd4Yqgu-29" target="XmIEk9-biLJK7yd4Yqgu-33">
          <mxGeometry relative="1" as="geometry" />
        </mxCell>
        <mxCell id="XmIEk9-biLJK7yd4Yqgu-29" value="B1" style="rounded=0;whiteSpace=wrap;html=1;fillColor=#f5f5f5;strokeColor=#B30505;fontColor=#333333;strokeWidth=4;" vertex="1" parent="1">
          <mxGeometry x="190" y="700" width="80" height="40" as="geometry" />
        </mxCell>
        <mxCell id="XmIEk9-biLJK7yd4Yqgu-32" value="B2" style="rounded=0;whiteSpace=wrap;html=1;fillColor=#f5f5f5;strokeColor=#B30505;fontColor=#333333;strokeWidth=4;" vertex="1" parent="1">
          <mxGeometry x="130" y="780" width="80" height="40" as="geometry" />
        </mxCell>
        <mxCell id="XmIEk9-biLJK7yd4Yqgu-33" value="B3" style="rounded=0;whiteSpace=wrap;html=1;fillColor=#f5f5f5;strokeColor=#666666;fontColor=#333333;" vertex="1" parent="1">
          <mxGeometry x="250" y="780" width="80" height="40" as="geometry" />
        </mxCell>
        <mxCell id="XmIEk9-biLJK7yd4Yqgu-35" value="C1" style="rounded=0;whiteSpace=wrap;html=1;fillColor=#f5f5f5;strokeColor=#666666;fontColor=#333333;" vertex="1" parent="1">
          <mxGeometry x="340" y="720" width="80" height="40" as="geometry" />
        </mxCell>
        <mxCell id="XmIEk9-biLJK7yd4Yqgu-43" style="edgeStyle=orthogonalEdgeStyle;rounded=0;orthogonalLoop=1;jettySize=auto;html=1;exitX=0.5;exitY=1;exitDx=0;exitDy=0;entryX=1;entryY=0.5;entryDx=0;entryDy=0;" edge="1" parent="1" source="XmIEk9-biLJK7yd4Yqgu-36" target="XmIEk9-biLJK7yd4Yqgu-33">
          <mxGeometry relative="1" as="geometry" />
        </mxCell>
        <mxCell id="XmIEk9-biLJK7yd4Yqgu-36" value="C2" style="rounded=0;whiteSpace=wrap;html=1;fillColor=#f5f5f5;strokeColor=#666666;fontColor=#333333;" vertex="1" parent="1">
          <mxGeometry x="453.5" y="720" width="80" height="40" as="geometry" />
        </mxCell>
        <mxCell id="XmIEk9-biLJK7yd4Yqgu-37" value="A1" style="rounded=0;whiteSpace=wrap;html=1;fillColor=#f5f5f5;strokeColor=#666666;fontColor=#333333;" vertex="1" parent="1">
          <mxGeometry x="40" y="700" width="80" height="40" as="geometry" />
        </mxCell>
      </root>
    </mxGraphModel>
  </diagram>
</mxfile>
